<svg version="1.1" id="Layer_1" xmlns="http://www.w3.org/2000/svg" xmlns:xlink="http://www.w3.org/1999/xlink" x="0px" y="0px"
	 width="1400px" height="980px" viewBox="0 0 1400 980" enable-background="new 0 0 1400 980" xml:space="preserve">
<g>
	<g>
		<g>
			<rect fill="#FFFFFF" width="1400" height="980"/>
		</g>
	</g>
	<g>
		<rect x="148.2" y="189.6" fill="#FFD078" width="253.5" height="199.7"/>
		<path d="M401.7,391.4H148.2c-1.2,0-2.1-1-2.1-2.1V189.6c0-1.2,1-2.1,2.1-2.1h253.5c1.2,0,2.1,1,2.1,2.1v199.7
			C403.9,390.5,402.9,391.4,401.7,391.4z M150.4,387.1h249.2V191.8H150.4V387.1z"/>
	</g>
	<g>
		<g>
			<path fill="#FFFFFF" d="M236.9,333c-4,0-8-1.5-11.1-4.6L179.5,282l22.2-22.2l35.3,35.3l70.7-70.7l22.2,22.2L248,328.4
				C245,331.5,241,333,236.9,333z"/>
			<path d="M236.9,335.2c-4.8,0-9.2-1.9-12.6-5.2L178,283.6c-0.4-0.4-0.6-0.9-0.6-1.5c0-0.6,0.2-1.1,0.6-1.5l22.2-22.2
				c0.8-0.8,2.2-0.8,3,0l33.8,33.8l69.2-69.2c0.8-0.8,2.2-0.8,3,0l22.2,22.2c0.4,0.4,0.6,0.9,0.6,1.5s-0.2,1.1-0.6,1.5l-81.8,81.8
				C246.2,333.3,241.7,335.2,236.9,335.2z M182.5,282l44.9,44.9c5.1,5.1,14,5.1,19.1,0l80.3-80.3l-19.1-19.1l-69.2,69.2
				c-0.8,0.8-2.2,0.8-3,0l-33.8-33.8L182.5,282z"/>
		</g>
	</g>
	<g>
		<polygon fill="#4DBD8C" points="596.4,437.9 596.4,137.7 1041.9,219.6 1041.9,466.5 		"/>
		<path d="M1041.9,468.6c0,0-0.1,0-0.1,0l-445.5-28.6c-1.1-0.1-2-1-2-2.1V137.7c0-0.6,0.3-1.2,0.8-1.7c0.5-0.4,1.1-0.6,1.8-0.5
			l445.5,81.9c1,0.2,1.8,1.1,1.8,2.1v246.9c0,0.6-0.2,1.2-0.7,1.6C1043,468.4,1042.5,468.6,1041.9,468.6z M598.5,435.9l441.2,28.3
			V221.4l-441.2-81.1V435.9z"/>
	</g>
	<g>
		<path fill="#FFFFFF" d="M704.6,289.5c0,20.2-16.3,36.5-36.5,36.5c-20.2,0-36.5-16.4-36.5-36.5c0-20.2,16.4-36.5,36.5-36.5
			C688.3,252.9,704.6,269.3,704.6,289.5z"/>
		<path d="M668.1,328.1c-21.3,0-38.7-17.3-38.7-38.7c0-21.3,17.3-38.7,38.7-38.7c21.3,0,38.7,17.3,38.7,38.7
			C706.8,310.8,689.4,328.1,668.1,328.1z M668.1,255.1c-19,0-34.4,15.4-34.4,34.4c0,19,15.4,34.4,34.4,34.4
			c19,0,34.4-15.4,34.4-34.4C702.5,270.5,687.1,255.1,668.1,255.1z"/>
	</g>
	<g>
		<path fill="#FFFFFF" d="M824.2,306.6c0,20.2-16.3,36.5-36.5,36.5c-20.2,0-36.5-16.4-36.5-36.5s16.4-36.5,36.5-36.5
			C807.9,270.1,824.2,286.5,824.2,306.6z"/>
		<path d="M787.7,345.3c-21.3,0-38.7-17.3-38.7-38.7s17.3-38.7,38.7-38.7s38.7,17.3,38.7,38.7S809,345.3,787.7,345.3z M787.7,272.3
			c-19,0-34.4,15.4-34.4,34.4c0,19,15.4,34.4,34.4,34.4c19,0,34.4-15.4,34.4-34.4C822.1,287.7,806.7,272.3,787.7,272.3z"/>
	</g>
	<g>
		<path fill="#FFFFFF" d="M935.2,315.2c0,20.2-16.3,36.5-36.5,36.5c-20.2,0-36.5-16.4-36.5-36.5c0-20.2,16.4-36.5,36.5-36.5
			C918.9,278.7,935.2,295.1,935.2,315.2z"/>
		<path d="M898.7,353.9c-21.3,0-38.7-17.3-38.7-38.7c0-21.3,17.3-38.7,38.7-38.7c21.3,0,38.7,17.3,38.7,38.7
			C937.4,336.6,920,353.9,898.7,353.9z M898.7,280.9c-19,0-34.4,15.4-34.4,34.4c0,19,15.4,34.4,34.4,34.4c19,0,34.4-15.4,34.4-34.4
			C933.1,296.3,917.7,280.9,898.7,280.9z"/>
	</g>
	<g>
		<path fill="#34D2F8" d="M528.5,470.5c0,28.5-23.1,51.6-51.6,51.6H326.5c-28.5,0-51.6-23.1-51.6-51.6V162.3
			c0-28.5,23.1-51.6,51.6-51.6h150.4c28.5,0,51.6,23.1,51.6,51.6V470.5z"/>
		<path d="M476.9,524.2H326.5c-29.6,0-53.7-24.1-53.7-53.7V162.3c0-29.6,24.1-53.7,53.7-53.7h150.4c29.6,0,53.7,24.1,53.7,53.7
			v308.2C530.6,500.1,506.5,524.2,476.9,524.2z M326.5,112.9c-27.2,0-49.4,22.2-49.4,49.4v308.2c0,27.2,22.2,49.4,49.4,49.4h150.4
			c27.2,0,49.4-22.2,49.4-49.4V162.3c0-27.2-22.2-49.4-49.4-49.4H326.5z"/>
	</g>
	<g>
		<g>
			<path fill="#4DBD8C" d="M185,734.4c16,0,24.5,8.5,24.5,24.5v18c0,1.7-0.8,2.7-2.7,2.7h-17.7c-1.7,0-2.7-1-2.7-2.7v-13.3
				c0-4.4-2.2-6.8-6.8-6.8h-8.2c-4.3,0-6.8,2.4-6.8,6.8v23.5l40.5,13.3c2.9,1.2,4.4,3.1,4.4,6.3v39.3c0,16-8.5,24.5-24.5,24.5h-19.1
				c-15.8,0-24.5-8.5-24.5-24.5v-17.9c0-1.9,1-2.7,2.7-2.7h17.7c1.9,0,2.7,0.9,2.7,2.7v13.1c0,4.6,2.6,6.8,6.8,6.8h8.2
				c4.4,0,6.8-2.2,6.8-6.8v-22.6L146,805.4c-3.1-1-4.6-3.1-4.6-6.3V759c0-16,8.7-24.5,24.5-24.5H185z"/>
		</g>
		<g>
			<path fill="#4DBD8C" d="M226.5,759c0-16,8.5-24.5,24.5-24.5h19.1c16,0,24.5,8.5,24.5,24.5v87.2c0,16-8.5,24.5-24.5,24.5H251
				c-16,0-24.5-8.5-24.5-24.5V759z M265.8,848.7c4.4,0,6.8-2.2,6.8-6.8v-78.7c0-4.4-2.4-6.8-6.8-6.8H256c-4.4,0-6.8,2.4-6.8,6.8
				v78.7c0,4.6,2.4,6.8,6.8,6.8H265.8z"/>
		</g>
		<g>
			<path fill="#4DBD8C" d="M379.9,777.4c0,1.7-1,2.7-2.7,2.7h-17c-1.9,0-2.7-1-2.7-2.7v-13.6c0-4.4-2.4-6.8-6.8-6.8h-8.9
				c-4.6,0-6.8,2.4-6.8,6.8v77.6c0,4.6,2.4,6.8,6.8,6.8h8.9c4.4,0,6.8-2.2,6.8-6.8v-13.6c0-1.7,0.9-2.7,2.7-2.7h17
				c1.7,0,2.7,1,2.7,2.7v18.4c0,16-8.7,24.5-24.5,24.5h-19.1c-16,0-24.7-8.5-24.7-24.5V759c0-16,8.7-24.5,24.7-24.5h19.1
				c15.8,0,24.5,8.5,24.5,24.5V777.4z"/>
		</g>
		<g>
			<path fill="#4DBD8C" d="M417.4,734.4c1.7,0,2.7,1,2.7,2.7v130.8c0,1.7-1,2.7-2.7,2.7h-17.7c-1.9,0-2.7-1-2.7-2.7V737.2
				c0-1.7,0.9-2.7,2.7-2.7H417.4z"/>
		</g>
		<g>
			<path fill="#4DBD8C" d="M501.2,870.7c-1.5,0-2.4-0.9-2.7-2.4l-4.8-24.9h-30.3l-4.6,24.9c-0.3,1.5-1.2,2.4-2.7,2.4h-18.2
				c-1.9,0-2.7-1-2.2-2.9l28.3-130.9c0.3-1.7,1.4-2.4,2.9-2.4h23.7c1.5,0,2.6,0.7,2.9,2.4l28.3,130.9c0.3,1.9-0.3,2.9-2.4,2.9H501.2
				z M478.5,764.2l-10.9,59.4h21.8L478.5,764.2z"/>
		</g>
		<g>
			<path fill="#4DBD8C" d="M560.1,848.2h40.5c1.9,0,2.7,1,2.7,2.7v17c0,1.9-0.8,2.7-2.7,2.7h-61c-1.7,0-2.7-0.9-2.7-2.7V737.2
				c0-1.7,1-2.7,2.7-2.7h17.7c1.9,0,2.7,1,2.7,2.7V848.2z"/>
		</g>
	</g>
	<g>
		<g>
			<path fill="#4DBD8C" d="M726.3,734.4c1.7,0,2.7,1,2.7,2.7v130.8c0,1.7-1,2.7-2.7,2.7h-16.9c-1.5,0-2.6-0.7-3.1-2.2l-26-72.7h-0.8
				v72.2c0,1.7-0.9,2.7-2.7,2.7h-17.7c-1.7,0-2.7-1-2.7-2.7V737.2c0-1.7,1-2.7,2.7-2.7h16.9c1.5,0,2.6,0.7,3.1,2.2l25.9,72.4h1
				v-71.9c0-1.7,0.9-2.7,2.7-2.7H726.3z"/>
		</g>
		<g>
			<path fill="#4DBD8C" d="M814,754.2c0,1.7-0.7,2.9-2.7,2.9h-42.6v34.1h32.5c1.7,0,2.7,1,2.7,2.9v16.9c0,1.9-1,2.9-2.7,2.9h-32.5
				v34.4h42.6c2,0,2.7,0.8,2.7,2.7v17c0,1.7-0.7,2.7-2.7,2.7h-62.7c-1.5,0-2.6-1-2.6-2.7V737.2c0-1.7,1-2.7,2.6-2.7h62.7
				c2,0,2.7,1,2.7,2.7V754.2z"/>
		</g>
		<g>
			<path fill="#4DBD8C" d="M893,734.4c1.9,0,2.7,1,2.7,2.7v17c0,1.7-0.8,2.7-2.7,2.7h-19.7v111c0,1.9-0.9,2.7-2.7,2.7h-17.7
				c-1.7,0-2.7-0.9-2.7-2.7v-111h-19.8c-1.7,0-2.7-1-2.7-2.7v-17c0-1.7,1-2.7,2.7-2.7H893z"/>
		</g>
		<g>
			<path fill="#4DBD8C" d="M1018.7,734.4c2.2,0,3.4,1.4,3.2,3.6l-14.6,129.4c-0.2,2.2-1.4,3.2-3.6,3.2H987c-2,0-3.2-1-3.8-3.1
				l-17.7-77l-17.9,77.1c-0.5,1.9-1.7,2.9-3.8,2.9h-17c-2.2,0-3.4-1-3.6-3.2l-14-129.4c-0.2-2.2,1-3.6,3.2-3.6h16.2
				c2,0,3.4,1.2,3.6,3.2l6.6,79.7h0.8l16.9-79.9c0.5-2,1.7-3.1,3.7-3.1h10.2c2,0,3.2,1,3.7,3.1l16.7,79.9h0.9l7-79.7
				c0.2-2,1.5-3.2,3.6-3.2H1018.7z"/>
		</g>
		<g>
			<path fill="#4DBD8C" d="M1033.8,759c0-16,8.5-24.5,24.5-24.5h19.1c16,0,24.5,8.5,24.5,24.5v87.2c0,16-8.5,24.5-24.5,24.5h-19.1
				c-16,0-24.5-8.5-24.5-24.5V759z M1073.2,848.7c4.4,0,6.8-2.2,6.8-6.8v-78.7c0-4.4-2.4-6.8-6.8-6.8h-9.9c-4.4,0-6.8,2.4-6.8,6.8
				v78.7c0,4.6,2.4,6.8,6.8,6.8H1073.2z"/>
		</g>
		<g>
			<path fill="#4DBD8C" d="M1189,800.5c0,11.4-4.3,18.9-12.4,22.5l11.7,44.6c0.5,2-0.5,3.1-2.4,3.1h-17.7c-1.7,0-2.6-0.9-2.9-2.4
				l-11.4-43.3h-11.7v42.9c0,1.7-1,2.7-2.7,2.7h-17.7c-1.7,0-2.7-1-2.7-2.7V737.2c0-1.7,1-2.7,2.7-2.7h42.7c16,0,24.5,8.5,24.5,24.5
				V800.5z M1159,802.6c4.4,0,6.8-2.4,6.8-6.8v-32c0-4.4-2.4-6.8-6.8-6.8h-16.9v45.6H1159z"/>
		</g>
		<g>
			<path fill="#4DBD8C" d="M1260.8,870.7c-2,0-3.2-0.9-3.9-2.6l-21.5-50.6l-6.3,12.1v37.6c0,2.2-1.2,3.4-3.4,3.4h-16.3
				c-2.2,0-3.4-1.2-3.4-3.4V737.9c0-2.2,1.2-3.4,3.4-3.4h16.3c2.2,0,3.4,1.2,3.4,3.4v52.8l26.2-53.6c0.8-1.7,2-2.6,3.9-2.6h17.9
				c2.6,0,3.6,1.7,2.4,4.1l-29,59.4l30.8,68.8c1.2,2.2,0.2,3.9-2.6,3.9H1260.8z"/>
		</g>
	</g>
	<g>
		<g>
			<path d="M179.1,862.6H160c-17.2,0-26.7-9.5-26.7-26.7v-17.9c0-3,1.9-4.9,4.9-4.9h17.7c3.1,0,4.9,1.8,4.9,4.9v13.1
				c0,3.2,1.4,4.7,4.7,4.7h8.2c3.3,0,4.7-1.4,4.7-4.7v-21.1l-38.9-12.8c-4-1.3-6.1-4.2-6.1-8.3v-40.2c0-17.2,9.5-26.7,26.7-26.7
				h19.1c17.2,0,26.7,9.5,26.7,26.7v18c0,3-1.9,4.9-4.9,4.9h-17.7c-2.9,0-4.9-2-4.9-4.9v-13.3c0-3.3-1.4-4.7-4.7-4.7h-8.2
				c-3.1,0-4.7,1.5-4.7,4.7v21.9l39,12.8c4,1.6,5.9,4.4,5.9,8.3v39.3C205.7,853.1,196.3,862.6,179.1,862.6z M137.7,817.6
				c0,0,0,0.2,0,0.5v17.9c0,14.6,7.7,22.4,22.4,22.4h19.1c14.8,0,22.4-7.5,22.4-22.4v-39.3c0-2.2-0.8-3.4-3.1-4.3L158,779.1
				c-0.9-0.3-1.5-1.1-1.5-2v-23.5c0-5.5,3.4-9,9-9h8.2c5.7,0,9,3.3,9,9v13.3c0,0.5,0.1,0.6,0.6,0.6h17.7c0.3,0,0.5-0.1,0.5-0.1l0,0
				c0,0,0-0.2,0-0.5v-18c0-14.8-7.5-22.4-22.4-22.4H160c-14.6,0-22.4,7.7-22.4,22.4v40.2c0,2.3,0.9,3.5,3.1,4.3l40.3,13.3
				c0.9,0.3,1.5,1.1,1.5,2v22.6c0,5.7-3.3,9-9,9h-8.2c-5.6,0-9-3.4-9-9v-13.1c0-0.3,0-0.5-0.1-0.5c0,0-0.2,0-0.5,0h-17.7
				C137.9,817.5,137.7,817.5,137.7,817.6C137.7,817.6,137.7,817.6,137.7,817.6z"/>
		</g>
		<g>
			<path d="M264.2,862.6h-19.1c-17.2,0-26.7-9.5-26.7-26.7v-87.2c0-17.2,9.5-26.7,26.7-26.7h19.1c17.2,0,26.7,9.5,26.7,26.7v87.2
				C290.9,853.1,281.4,862.6,264.2,862.6z M245.1,726.4c-14.8,0-22.4,7.5-22.4,22.4v87.2c0,14.8,7.5,22.4,22.4,22.4h19.1
				c14.8,0,22.4-7.5,22.4-22.4v-87.2c0-14.8-7.5-22.4-22.4-22.4H245.1z M259.9,840.6h-9.9c-5.7,0-9-3.3-9-9V753c0-5.6,3.3-9,9-9h9.9
				c5.6,0,9,3.3,9,9v78.7C268.9,837.4,265.6,840.6,259.9,840.6z M250.1,748.4c-3.2,0-4.7,1.4-4.7,4.7v78.7c0,3.3,1.4,4.7,4.7,4.7
				h9.9c3.3,0,4.7-1.4,4.7-4.7V753c0-3.2-1.4-4.7-4.7-4.7H250.1z"/>
		</g>
		<g>
			<path d="M349.5,862.6h-19.1c-17.3,0-26.8-9.5-26.8-26.7v-87.2c0-17.2,9.5-26.7,26.8-26.7h19.1c17.2,0,26.7,9.5,26.7,26.7v18.4
				c0,2.9-2,4.9-4.9,4.9h-17c-3,0-4.9-1.9-4.9-4.9v-13.6c0-3.2-1.4-4.7-4.7-4.7h-8.9c-3.3,0-4.7,1.4-4.7,4.7v77.6
				c0,3.3,1.4,4.7,4.7,4.7h8.9c3.3,0,4.7-1.4,4.7-4.7v-13.6c0-3,1.9-4.9,4.9-4.9h17c2.9,0,4.9,2,4.9,4.9v18.4
				C376.2,853.1,366.7,862.6,349.5,862.6z M330.4,726.4c-15,0-22.5,7.5-22.5,22.4v87.2c0,14.8,7.6,22.4,22.5,22.4h19.1
				c14.6,0,22.4-7.7,22.4-22.4v-18.4c0-0.5-0.1-0.6-0.6-0.6h-17c-0.3,0-0.5,0.1-0.5,0.1c0,0-0.1,0.2-0.1,0.5v13.6c0,5.7-3.3,9-9,9
				h-8.9c-5.7,0-9-3.3-9-9v-77.6c0-5.7,3.3-9,9-9h8.9c5.6,0,9,3.3,9,9v13.6c0,0.4,0.1,0.5,0.1,0.5c0,0,0.2,0,0.5,0h17
				c0.5,0,0.6-0.1,0.6-0.6v-18.4c0-14.6-7.7-22.4-22.4-22.4H330.4z"/>
		</g>
		<g>
			<path d="M411.5,862.6h-17.7c-3,0-4.9-1.9-4.9-4.9V727c0-3,1.9-4.9,4.9-4.9h17.7c2.9,0,4.9,2,4.9,4.9v130.8
				C416.4,860.6,414.4,862.6,411.5,862.6z M393.3,858.3c0,0,0.2,0.1,0.5,0.1h17.7c0.5,0,0.6-0.1,0.6-0.6V727c0-0.5-0.1-0.6-0.6-0.6
				h-17.7c-0.3,0-0.5,0-0.5,0.1c0,0,0,0.2,0,0.5v130.8C393.2,858.1,393.3,858.2,393.3,858.3C393.3,858.3,393.3,858.3,393.3,858.3z"
				/>
		</g>
		<g>
			<path d="M513.3,862.6h-18.1c-2.5,0-4.3-1.5-4.8-4.1l-4.4-23.2h-26.7l-4.3,23.1c-0.6,2.7-2.3,4.1-4.8,4.1h-18.2
				c-2.1,0-3.2-0.9-3.7-1.6c-0.6-0.7-1.1-2-0.6-4l28.2-130.8c0.5-2.6,2.3-4.1,5-4.1h23.7c2.7,0,4.5,1.5,5,4.1l28.3,130.9
				c0.3,1.7,0.1,3-0.8,4C516.2,862.1,515,862.6,513.3,862.6z M457.5,831.1h30.3c1,0,1.9,0.7,2.1,1.7l4.8,24.9
				c0.1,0.6,0.3,0.6,0.6,0.6h18.1c0.1,0,0.2,0,0.3,0c0-0.1,0-0.2-0.1-0.3l-28.2-130.9c-0.1-0.6-0.2-0.7-0.8-0.7h-23.7
				c-0.6,0-0.7,0-0.8,0.7l-28.3,131c0,0.1,0,0.2-0.1,0.3c0.1,0,0.1,0,0.2,0h18.2c0.3,0,0.5,0,0.6-0.7l4.6-24.8
				C455.5,831.8,456.4,831.1,457.5,831.1z M483.5,815.6h-21.8c-0.6,0-1.2-0.3-1.6-0.8c-0.4-0.5-0.6-1.1-0.5-1.8l10.9-59.4
				c0.2-1,1.1-1.8,2.1-1.8l0,0c1,0,1.9,0.7,2.1,1.8l10.9,59.4c0.1,0.6-0.1,1.3-0.5,1.8C484.8,815.3,484.1,815.6,483.5,815.6z
				 M464.3,811.3h16.6l-8.3-45.4L464.3,811.3z"/>
		</g>
		<g>
			<path d="M594.7,862.6h-61c-3,0-4.9-1.9-4.9-4.9V727c0-2.9,2-4.9,4.9-4.9h17.7c3,0,4.9,1.9,4.9,4.9v108.9h38.4
				c3,0,4.9,1.9,4.9,4.9v17C599.6,860.8,597.8,862.6,594.7,862.6z M533.3,858.3c0,0,0.2,0,0.5,0h61c0.3,0,0.5,0,0.5-0.1
				c0,0,0-0.2,0-0.5v-17c0-0.3-0.1-0.5-0.1-0.5c0,0-0.1,0-0.5,0h-40.5c-1.2,0-2.1-1-2.1-2.1V727c0-0.3-0.1-0.5-0.1-0.5
				c0,0-0.2,0-0.5,0h-17.7c-0.5,0-0.6,0.1-0.6,0.6v130.8C533.2,858.1,533.2,858.2,533.3,858.3C533.3,858.3,533.3,858.3,533.3,858.3z
				"/>
		</g>
	</g>
	<g>
		<g>
			<path d="M720.4,862.6h-16.9c-2.5,0-4.3-1.3-5.1-3.7l-22.7-63.4v62.2c0,3-1.9,4.9-4.9,4.9h-17.7c-2.9,0-4.9-2-4.9-4.9V727
				c0-2.9,2-4.9,4.9-4.9H670c2.5,0,4.3,1.3,5.1,3.7l22.7,63.5V727c0-3,1.9-4.9,4.9-4.9h17.7c2.9,0,4.9,2,4.9,4.9v130.8
				C725.3,860.6,723.3,862.6,720.4,862.6z M673.6,783.4h0.8c0.9,0,1.7,0.6,2,1.4l26,72.7c0.2,0.7,0.4,0.8,1,0.8h16.9
				c0.5,0,0.6-0.1,0.6-0.6V727c0-0.5-0.1-0.6-0.6-0.6h-17.7c-0.3,0-0.5,0-0.5,0.1c0,0-0.1,0.2-0.1,0.5v71.9c0,1.2-1,2.1-2.1,2.1h-1
				c-0.9,0-1.7-0.6-2-1.4L671,727.2c-0.2-0.7-0.4-0.8-1-0.8h-16.9c-0.5,0-0.6,0.1-0.6,0.6v130.8c0,0.5,0.1,0.6,0.6,0.6h17.7
				c0.3,0,0.5-0.1,0.5-0.1c0,0,0.1-0.2,0.1-0.5v-72.2C671.4,784.4,672.4,783.4,673.6,783.4z"/>
		</g>
		<g>
			<path d="M805.4,862.6h-62.7c-2.8,0-4.7-2-4.7-4.9V727c0-2.9,1.9-4.9,4.7-4.9h62.7c3.1,0,4.9,1.8,4.9,4.9v17c0,3.1-1.9,5-4.9,5
				H765v29.8h30.4c2.9,0,4.9,2,4.9,5v16.9c0,3-2,5-4.9,5H765v30.1h40.4c3.1,0,4.9,1.7,4.9,4.9v17
				C810.2,860.8,808.4,862.6,805.4,862.6z M742.7,726.4c-0.3,0-0.4,0-0.4,0.6v130.8c0,0.6,0.1,0.6,0.4,0.6h62.7c0.3,0,0.5,0,0.6-0.1
				c0,0,0-0.2,0-0.5v-17c0-0.3,0-0.5,0-0.6c-0.1,0-0.2,0-0.5,0h-42.6c-1.2,0-2.1-1-2.1-2.1v-34.4c0-1.2,1-2.1,2.1-2.1h32.5
				c0.4,0,0.6,0,0.6-0.7v-16.9c0-0.7-0.1-0.7-0.6-0.7h-32.5c-1.2,0-2.1-1-2.1-2.1v-34.1c0-1.2,1-2.1,2.1-2.1h42.6
				c0.3,0,0.5-0.1,0.5-0.1c0,0,0.1-0.2,0.1-0.7v-17c0-0.3,0-0.5-0.1-0.5c0,0-0.2,0-0.5,0H742.7z"/>
		</g>
		<g>
			<path d="M864.6,862.6h-17.7c-3,0-4.9-1.9-4.9-4.9V748.9h-17.6c-2.9,0-4.9-2-4.9-4.9v-17c0-2.9,2-4.9,4.9-4.9h62.7
				c3,0,4.9,1.9,4.9,4.9v17c0,3-1.9,4.9-4.9,4.9h-17.6v108.9C869.5,860.8,867.7,862.6,864.6,862.6z M846.4,858.3c0,0,0.2,0,0.5,0
				h17.7c0.3,0,0.5,0,0.6-0.1c0,0,0-0.2,0-0.5v-111c0-1.2,1-2.1,2.1-2.1h19.7c0.3,0,0.5-0.1,0.5-0.1l0,0c0,0,0-0.2,0-0.5v-17
				c0-0.3-0.1-0.5-0.1-0.5c0,0-0.2,0-0.5,0h-62.7c-0.5,0-0.6,0.1-0.6,0.6v17c0,0.5,0.1,0.6,0.6,0.6h19.8c1.2,0,2.1,1,2.1,2.1v111
				C846.3,858.1,846.4,858.2,846.4,858.3C846.4,858.3,846.4,858.3,846.4,858.3z"/>
		</g>
		<g>
			<path d="M997.8,862.6h-16.7c-3,0-5.1-1.7-5.8-4.7L959.6,790L943.9,858c-0.8,3-2.9,4.6-5.8,4.6h-17c-3.4,0-5.5-1.9-5.7-5.2
				l-14-129.3c-0.2-2.2,0.6-3.6,1.3-4.3c0.7-0.7,1.9-1.6,4.1-1.6h16.2c3.2,0,5.4,2.1,5.7,5.2l5.7,68l14.4-68.4
				c0.8-3.1,2.8-4.8,5.8-4.8h10.2c3,0,5.1,1.7,5.8,4.7l14.3,68.6l6-68.1c0.3-3.1,2.6-5.2,5.7-5.2h16.2c2.1,0,3.4,0.9,4.1,1.6
				c0.7,0.7,1.5,2.1,1.3,4.3l-14.7,129.5C1003.2,860.7,1001.2,862.6,997.8,862.6z M959.6,778.3L959.6,778.3c1,0,1.9,0.7,2.1,1.7
				l17.7,77c0.3,1.2,0.7,1.4,1.7,1.4h16.7c1.2,0,1.4-0.3,1.4-1.3l14.7-129.5c0-0.4,0-0.8-0.2-0.9c-0.1-0.1-0.5-0.2-0.9-0.2h-16.2
				c-1.1,0-1.4,0.5-1.4,1.3l-7,79.7c-0.1,1.1-1,2-2.1,2h-0.9c-1,0-1.9-0.7-2.1-1.7l-16.7-79.9c-0.3-1.2-0.7-1.4-1.6-1.4h-10.2
				c-0.9,0-1.3,0.2-1.7,1.4L936,807.6c-0.2,1-1.1,1.7-2.1,1.7h-0.8c-1.1,0-2-0.9-2.1-2l-6.6-79.7c-0.1-0.9-0.5-1.3-1.4-1.3h-16.2
				c-0.4,0-0.8,0.1-0.9,0.2c-0.2,0.2-0.2,0.5-0.2,1l14,129.3c0.1,1.1,0.3,1.3,1.4,1.3h17c1,0,1.4-0.3,1.7-1.3l17.9-77.1
				C957.8,779,958.6,778.3,959.6,778.3z"/>
		</g>
		<g>
			<path d="M1071.5,862.6h-19.1c-17.2,0-26.7-9.5-26.7-26.7v-87.2c0-17.2,9.5-26.7,26.7-26.7h19.1c17.2,0,26.7,9.5,26.7,26.7v87.2
				C1098.2,853.1,1088.7,862.6,1071.5,862.6z M1052.4,726.4c-14.8,0-22.4,7.5-22.4,22.4v87.2c0,14.8,7.5,22.4,22.4,22.4h19.1
				c14.8,0,22.4-7.5,22.4-22.4v-87.2c0-14.8-7.5-22.4-22.4-22.4H1052.4z M1067.3,840.6h-9.9c-5.7,0-9-3.3-9-9V753c0-5.6,3.3-9,9-9
				h9.9c5.6,0,9,3.3,9,9v78.7C1076.2,837.4,1073,840.6,1067.3,840.6z M1057.4,748.4c-3.2,0-4.7,1.4-4.7,4.7v78.7
				c0,3.3,1.4,4.7,4.7,4.7h9.9c3.3,0,4.7-1.4,4.7-4.7V753c0-3.2-1.4-4.7-4.7-4.7H1057.4z"/>
		</g>
		<g>
			<path d="M1180,862.6h-17.7c-2.6,0-4.4-1.4-5-4.1l-11-41.6h-7.9v40.8c0,2.9-2,4.9-4.9,4.9h-17.7c-2.9,0-4.9-2-4.9-4.9V727
				c0-2.9,2-4.9,4.9-4.9h42.7c17.2,0,26.7,9.5,26.7,26.7v41.5c0,11.5-4.1,19.4-12.1,23.6l11.3,42.9c0.5,2.1-0.1,3.4-0.6,4.1
				C1183.2,861.7,1182.1,862.6,1180,862.6z M1136.2,812.7h11.7c1,0,1.8,0.7,2.1,1.6l11.4,43.2c0.2,0.8,0.3,0.8,0.8,0.8h17.7
				c0.2,0,0.3,0,0.4,0c0-0.1,0-0.2-0.1-0.4l-11.7-44.6c-0.3-1,0.2-2.1,1.2-2.5c7.4-3.2,11.1-10.1,11.1-20.5v-41.5
				c0-14.8-7.5-22.4-22.4-22.4h-42.7c-0.5,0-0.6,0.1-0.6,0.6v130.8c0,0.5,0.1,0.6,0.6,0.6h17.7c0.5,0,0.6-0.1,0.6-0.6v-42.9
				C1134.1,813.6,1135,812.7,1136.2,812.7z M1153.1,794.5h-16.9c-1.2,0-2.1-1-2.1-2.1v-45.6c0-1.2,1-2.1,2.1-2.1h16.9
				c5.6,0,9,3.3,9,9v32C1162,791.1,1158.7,794.5,1153.1,794.5z M1138.4,790.2h14.7c3.2,0,4.7-1.4,4.7-4.7v-32c0-3.2-1.4-4.7-4.7-4.7
				h-14.7V790.2z"/>
		</g>
		<g>
			<path d="M1272.9,862.6h-18c-2.8,0-4.9-1.4-5.9-3.9l-19.7-46.3l-4,7.6V857c0,3.4-2.1,5.6-5.6,5.6h-16.3c-3.4,0-5.5-2.2-5.5-5.6
				V727.6c0-3.4,2.2-5.6,5.5-5.6h16.3c3.4,0,5.6,2.1,5.6,5.6v43.5l22.1-45.3c1.2-2.5,3.2-3.8,5.8-3.8h17.9c2.7,0,3.9,1.3,4.4,2.1
				c0.5,0.8,1.2,2.6-0.1,5.1l-28.5,58.5l30.4,67.9c1.2,2.2,0.6,3.9,0.1,4.7C1277.1,861.2,1275.8,862.6,1272.9,862.6z M1229.5,805.2
				C1229.6,805.2,1229.6,805.2,1229.5,805.2c0.9,0,1.7,0.5,2,1.3l21.4,50.6c0.4,0.9,0.7,1.3,1.9,1.3h18c0.6,0,0.8-0.1,0.9-0.2
				c0,0-0.1-0.3-0.3-0.6l-30.9-68.9c-0.3-0.6-0.3-1.2,0-1.8l29-59.4c0.3-0.5,0.3-0.8,0.3-0.9c0,0,0,0,0,0c-0.1,0-0.3-0.1-0.7-0.1
				h-17.9c-0.9,0-1.4,0.2-2,1.4l-26.2,53.6c-0.4,0.9-1.5,1.4-2.4,1.2c-1-0.2-1.7-1.1-1.7-2.1v-52.8c0-1-0.2-1.3-1.3-1.3h-16.3
				c-1,0-1.3,0.2-1.3,1.3V857c0,1,0.2,1.3,1.3,1.3h16.3c1,0,1.3-0.2,1.3-1.3v-37.6c0-0.3,0.1-0.7,0.2-1l6.3-12.1
				C1228,805.6,1228.7,805.2,1229.5,805.2z"/>
		</g>
	</g>
	<g>
		<path fill="#FF968C" d="M151.3,533.9c4.3,54.5,51.9,95.3,106.4,91c12.9-1,25-4.5,36-9.8c11.5,8.4,35.7,23.3,64.6,25.3
			c0,0-23.4-29.2-26.5-58.4c12.3-18,18.8-40.1,16.9-63.5c-4.3-54.5-51.9-95.3-106.4-91S147.1,479.4,151.3,533.9z"/>
		<path d="M358.3,642.6c-0.1,0-0.1,0-0.2,0c-28.4-2-52.3-16.1-64.7-24.9c-11.2,5.3-23.1,8.5-35.6,9.5c-2.7,0.2-5.3,0.3-8,0.3
			c0,0,0,0,0,0c-52.4,0-96.7-41-100.8-93.3c-4.3-55.6,37.4-104.4,93-108.7c2.7-0.2,5.3-0.3,8-0.3c52.4,0,96.7,41,100.8,93.3
			c1.8,23-4,45.1-16.9,64.2c3.1,26.3,23,52.7,25.6,56.1c0.5,0.4,0.8,1,0.8,1.7C360.5,641.6,359.6,642.6,358.3,642.6
			C358.4,642.6,358.4,642.6,358.3,642.6z M293.7,613c0.4,0,0.9,0.1,1.3,0.4c10.9,8,32.6,21.3,58.7,24.4c-6.5-9-21.5-32.1-24-55.5
			c-0.1-0.5,0.1-1,0.4-1.4c12.6-18.4,18.3-39.9,16.6-62.1c-3.9-50.1-46.3-89.4-96.5-89.4c-2.5,0-5.1,0.1-7.6,0.3
			c-53.3,4.2-93.2,50.9-89.1,104.1c3.9,50.1,46.3,89.4,96.5,89.4c0,0,0,0,0,0c2.5,0,5.1-0.1,7.6-0.3c12.3-1,24.1-4.2,35.2-9.6
			C293.1,613,293.4,613,293.7,613z"/>
	</g>
	<g>
		<path fill="#FFD078" d="M698.4,289.5h-174c-33.9,0-61.4,27.5-61.4,61.4V490v34.9v109.3l105.3-47.8h130.2
			c33.9,0,61.4-27.5,61.4-61.4v-174C759.8,317,732.3,289.5,698.4,289.5z"/>
		<path d="M462.9,636.4c-0.4,0-0.8-0.1-1.2-0.3c-0.6-0.4-1-1.1-1-1.8V350.9c0-35.1,28.5-63.6,63.6-63.6h174
			c35.1,0,63.6,28.5,63.6,63.6v174c0,35.1-28.5,63.6-63.6,63.6H568.6l-104.8,47.6C463.5,636.3,463.2,636.4,462.9,636.4z
			 M524.3,291.6c-32.7,0-59.3,26.6-59.3,59.3v280l102.2-46.5c0.3-0.1,0.6-0.2,0.9-0.2h130.2c32.7,0,59.3-26.6,59.3-59.3v-174
			c0-32.7-26.6-59.3-59.3-59.3H524.3z"/>
	</g>
	<g>
		<polygon fill="#FFFBAC" points="819.9,349 819.9,583.9 896.2,583.9 934.1,649.7 972.1,583.9 1111.8,583.9 1149.7,649.7 
			1187.7,583.9 1263.9,583.9 1263.9,349 		"/>
		<path d="M1149.7,651.8L1149.7,651.8c-0.8,0-1.5-0.4-1.9-1.1l-37.3-64.7H973.3L936,650.8c-0.4,0.7-1.1,1.1-1.9,1.1l0,0
			c-0.8,0-1.5-0.4-1.9-1.1l-37.3-64.7h-75c-1.2,0-2.1-1-2.1-2.1V349c0-1.2,1-2.1,2.1-2.1h444c1.2,0,2.1,1,2.1,2.1v234.9
			c0,1.2-1,2.1-2.1,2.1h-75l-37.3,64.7C1151.2,651.4,1150.5,651.8,1149.7,651.8z M972.1,581.8h139.7c0.8,0,1.5,0.4,1.9,1.1
			l36.1,62.5l36.1-62.5c0.4-0.7,1.1-1.1,1.9-1.1h74.1V351.2H822.1v230.6h74.1c0.8,0,1.5,0.4,1.9,1.1l36.1,62.5l36.1-62.5
			C970.6,582.2,971.3,581.8,972.1,581.8z"/>
	</g>
	<g>
		<polygon fill="#FFFFFF" points="607.6,334 640.1,399.7 712.6,410.3 660.1,461.4 672.5,533.6 607.6,499.5 542.8,533.6 555.2,461.4 
			502.7,410.3 575.2,399.7 		"/>
		<path d="M542.8,535.8c-0.4,0-0.9-0.1-1.3-0.4c-0.7-0.5-1-1.3-0.9-2.1l12.2-71.1l-51.7-50.4c-0.6-0.6-0.8-1.4-0.5-2.2
			c0.3-0.8,0.9-1.3,1.7-1.5l71.4-10.4l31.9-64.7c0.4-0.7,1.1-1.2,1.9-1.2l0,0c0.8,0,1.6,0.5,1.9,1.2l31.9,64.7l71.4,10.4
			c0.8,0.1,1.5,0.7,1.7,1.5c0.3,0.8,0,1.6-0.5,2.2l-51.7,50.4l12.2,71.1c0.1,0.8-0.2,1.6-0.9,2.1c-0.7,0.5-1.5,0.5-2.3,0.2
			L607.6,502l-63.9,33.6C543.5,535.7,543.1,535.8,542.8,535.8z M507.3,411.8l49.3,48.1c0.5,0.5,0.7,1.2,0.6,1.9l-11.6,67.9l61-32.1
			c0.6-0.3,1.4-0.3,2,0l61,32.1L658,461.8c-0.1-0.7,0.1-1.4,0.6-1.9l49.3-48.1l-68.2-9.9c-0.7-0.1-1.3-0.5-1.6-1.2l-30.5-61.8
			l-30.5,61.8c-0.3,0.6-0.9,1.1-1.6,1.2L507.3,411.8z"/>
	</g>
	<g>
		<path d="M623.5,232.5c-1.2,0-2.1-1-2.1-2.1v-54.2c0-0.6,0.3-1.2,0.8-1.6c0.5-0.4,1.1-0.6,1.7-0.5l44.6,7.5c1.2,0.2,2,1.3,1.8,2.5
			c-0.2,1.2-1.3,2-2.5,1.8l-42.1-7.1v51.7C625.7,231.5,624.7,232.5,623.5,232.5z"/>
	</g>
	<g>
		<circle fill="#FFFFFF" cx="528.5" cy="208" r="32"/>
		<path d="M528.5,242.1c-18.8,0-34.1-15.3-34.1-34.1c0-18.8,15.3-34.1,34.1-34.1c18.8,0,34.1,15.3,34.1,34.1
			C562.6,226.8,547.3,242.1,528.5,242.1z M528.5,178.2c-16.4,0-29.8,13.4-29.8,29.8c0,16.4,13.4,29.8,29.8,29.8
			c16.4,0,29.8-13.4,29.8-29.8C558.3,191.6,544.9,178.2,528.5,178.2z"/>
	</g>
	<g>
		<g>
			<path fill="#FFFFFF" d="M422.2,176.6c3.6,0,5.7,2.2,5.7,5.7L425.4,378c0,3.6-2.2,5.7-5.7,5.7h-34.1c-3.9,0-5.7-2.2-5.7-5.7
				l-2.5-195.7c0-3.6,1.8-5.7,5.7-5.7H422.2z M379.1,423.6c0-4.7,2.5-7.2,7.2-7.2H419c4.7,0,7.2,2.5,7.2,7.2v33
				c0,4.7-2.5,7.2-7.2,7.2h-32.7c-4.7,0-7.2-2.5-7.2-7.2V423.6z"/>
			<path d="M419,466h-32.7c-5.8,0-9.3-3.5-9.3-9.3v-33c0-5.8,3.5-9.3,9.3-9.3H419c5.8,0,9.3,3.5,9.3,9.3v33
				C428.3,462.5,424.8,466,419,466z M386.3,418.6c-3.5,0-5,1.6-5,5v33c0,3.5,1.6,5,5,5H419c3.5,0,5-1.6,5-5v-33c0-3.5-1.5-5-5-5
				H386.3z M419.7,385.9h-34.1c-4.9,0-7.9-3-7.9-7.9l-2.5-195.7c0-5,3-7.9,7.9-7.9h39.1c4.8,0,7.9,3.1,7.9,7.9L427.6,378
				C427.6,382.8,424.5,385.9,419.7,385.9z M383.1,178.7c-2.6,0-3.6,1-3.6,3.6L382,378c0,2.6,1,3.6,3.6,3.6h34.1
				c2.4,0,3.6-1.2,3.6-3.6l2.5-195.7c0-2.4-1.2-3.6-3.6-3.6H383.1z"/>
		</g>
	</g>
	<g>
		<rect x="199.8" y="475.6" fill="#FFFFFF" width="103.1" height="21.5"/>
		<path d="M302.9,499.2H199.8c-1.2,0-2.1-1-2.1-2.1v-21.5c0-1.2,1-2.1,2.1-2.1h103.1c1.2,0,2.1,1,2.1,2.1v21.5
			C305,498.3,304.1,499.2,302.9,499.2z M202,494.9h98.8v-17.2H202V494.9z"/>
	</g>
	<g>
		<rect x="199.8" y="518.6" fill="#FFFFFF" width="103.1" height="21.5"/>
		<path d="M302.9,542.2H199.8c-1.2,0-2.1-1-2.1-2.1v-21.5c0-1.2,1-2.1,2.1-2.1h103.1c1.2,0,2.1,1,2.1,2.1V540
			C305,541.2,304.1,542.2,302.9,542.2z M202,537.9h98.8v-17.2H202V537.9z"/>
	</g>
	<g>
		<rect x="199.8" y="561.5" fill="#FFFFFF" width="103.1" height="21.5"/>
		<path d="M302.9,585.2H199.8c-1.2,0-2.1-1-2.1-2.1v-21.5c0-1.2,1-2.1,2.1-2.1h103.1c1.2,0,2.1,1,2.1,2.1V583
			C305,584.2,304.1,585.2,302.9,585.2z M202,580.9h98.8v-17.2H202V580.9z"/>
	</g>
	<g>
		<polyline fill="#FFFFFF" points="895.7,647 869.2,610.1 804.8,610.1 		"/>
		<path d="M895.7,649.2c-0.7,0-1.3-0.3-1.7-0.9l-25.9-36.1h-63.3c-1.2,0-2.1-1-2.1-2.1c0-1.2,1-2.1,2.1-2.1h64.5
			c0.7,0,1.3,0.3,1.7,0.9l26.5,37c0.7,1,0.5,2.3-0.5,3C896.6,649,896.2,649.2,895.7,649.2z"/>
	</g>
	<g>
		<line fill="#FFFFFF" x1="435.5" y1="605.2" x2="435.5" y2="649.7"/>
		<path d="M435.5,651.8c-1.2,0-2.1-1-2.1-2.1v-44.5c0-1.2,1-2.1,2.1-2.1c1.2,0,2.1,1,2.1,2.1v44.5
			C437.6,650.9,436.7,651.8,435.5,651.8z"/>
	</g>
	<g>
		<path d="M435.5,585.2c-1.2,0-2.1-1-2.1-2.1v-34.2c0-1.2,1-2.1,2.1-2.1c1.2,0,2.1,1,2.1,2.1V583
			C437.6,584.2,436.7,585.2,435.5,585.2z"/>
	</g>
	<g>
		<line fill="#FFFFFF" x1="881.5" y1="379.5" x2="881.5" y2="553.5"/>
		<path fill="#231F20" d="M881.5,555.7c-1.2,0-2.1-1-2.1-2.1V379.5c0-1.2,1-2.1,2.1-2.1c1.2,0,2.1,1,2.1,2.1v174.1
			C883.7,554.7,882.7,555.7,881.5,555.7z"/>
	</g>
	<g>
		<polygon fill="#FFFFFF" points="995.2,432.2 881.5,432.2 881.5,400.8 995.2,400.8 1011.8,416.5 		"/>
		<path d="M995.2,434.3H881.5c-1.2,0-2.1-1-2.1-2.1v-31.4c0-1.2,1-2.1,2.1-2.1h113.7c0.5,0,1.1,0.2,1.5,0.6l16.6,15.7
			c0.4,0.4,0.7,1,0.7,1.6c0,0.6-0.2,1.2-0.7,1.6l-16.6,15.7C996.3,434.1,995.7,434.3,995.2,434.3z M883.7,430h110.7l14.4-13.6
			l-14.4-13.6H883.7V430z"/>
	</g>
	<g>
		<polygon fill="#FFFFFF" points="929,482.2 881.5,482.2 881.5,450.8 929,450.8 946.7,466.5 		"/>
		<path d="M929,484.4h-47.5c-1.2,0-2.1-1-2.1-2.1v-31.4c0-1.2,1-2.1,2.1-2.1H929c0.5,0,1,0.2,1.4,0.5l17.7,15.7
			c0.5,0.4,0.7,1,0.7,1.6c0,0.6-0.3,1.2-0.7,1.6l-17.7,15.7C930,484.2,929.5,484.4,929,484.4z M883.7,480.1h44.5l15.3-13.6
			l-15.3-13.6h-44.5V480.1z"/>
	</g>
	<g>
		<polygon fill="#FFFFFF" points="1034,532.2 881.5,532.2 881.5,500.8 1034,500.8 1049.9,516.5 		"/>
		<path d="M1034,534.4H881.5c-1.2,0-2.1-1-2.1-2.1v-31.4c0-1.2,1-2.1,2.1-2.1H1034c0.6,0,1.1,0.2,1.5,0.6l15.9,15.7
			c0.4,0.4,0.6,1,0.6,1.5c0,0.6-0.2,1.1-0.6,1.5l-15.9,15.7C1035.1,534.1,1034.5,534.4,1034,534.4z M883.7,530.1h149.4l13.8-13.6
			l-13.8-13.6H883.7V530.1z"/>
	</g>
	<g>
		<path fill="#FFFFFF" d="M1144.1,404.2c-37.6,0-68.1,30.5-68.1,68.1c0,37.6,30.5,68,68.1,68v-68V404.2z"/>
		<path d="M1144.1,542.4c-38.7,0-70.2-31.5-70.2-70.2c0-38.7,31.5-70.2,70.2-70.2c1.2,0,2.1,1,2.1,2.1v136.1
			C1146.3,541.5,1145.3,542.4,1144.1,542.4z M1142,406.4c-35.3,1.1-63.8,30.3-63.8,65.9c0,35.6,28.4,64.7,63.8,65.9V406.4z"/>
	</g>
	<g>
		<path fill="#FFFFFF" d="M1144.1,540.3c18.8,0,35.8-7.6,48.1-19.9l-48.1-48.1V540.3z"/>
		<path d="M1144.1,542.4c-1.2,0-2.1-1-2.1-2.1v-68c0-0.9,0.5-1.7,1.3-2c0.8-0.3,1.7-0.1,2.3,0.5l48.1,48.1c0.4,0.4,0.6,1,0.6,1.5
			c0,0.6-0.2,1.1-0.6,1.5C1180.5,535.1,1162.9,542.4,1144.1,542.4z M1146.3,477.4v60.7c16.1-0.5,31.2-6.8,42.9-17.8L1146.3,477.4z"
			/>
	</g>
	<g>
		<path fill="#FFFFFF" d="M1144.1,404.2v68.1l48.1,48.1c12.3-12.3,19.9-29.3,19.9-48.1C1212.2,434.7,1181.7,404.2,1144.1,404.2z"/>
		<path d="M1192.3,522.5c-0.6,0-1.1-0.2-1.5-0.6l-48.1-48.1c-0.4-0.4-0.6-0.9-0.6-1.5v-68.1c0-1.2,1-2.1,2.1-2.1
			c38.7,0,70.2,31.5,70.2,70.2c0,18.7-7.3,36.4-20.6,49.6C1193.4,522.3,1192.8,522.5,1192.3,522.5z M1146.3,471.4l45.9,45.9
			c11.5-12.3,17.8-28.2,17.8-45.1c0-35.6-28.4-64.7-63.8-65.9V471.4z"/>
	</g>
	<g>
		<line fill="#FFFFFF" x1="1144.1" y1="472.2" x2="1144.1" y2="386.4"/>
		<path fill="#231F20" d="M1144.1,474.4c-1.2,0-2.1-1-2.1-2.1v-85.9c0-1.2,1-2.1,2.1-2.1c1.2,0,2.1,1,2.1,2.1v85.9
			C1146.3,473.4,1145.3,474.4,1144.1,474.4z"/>
	</g>
	<g>
		<line fill="#FFFFFF" x1="1144.1" y1="472.2" x2="1210.8" y2="538.9"/>
		<path fill="#231F20" d="M1210.8,541c-0.6,0-1.1-0.2-1.5-0.6l-66.6-66.6c-0.8-0.8-0.8-2.2,0-3c0.8-0.8,2.2-0.8,3,0l66.6,66.6
			c0.8,0.8,0.8,2.2,0,3C1211.9,540.8,1211.3,541,1210.8,541z"/>
	</g>
	<g>
		<line fill="#FFFFFF" x1="1144.1" y1="472.2" x2="1144.1" y2="558.1"/>
		<path fill="#231F20" d="M1144.1,560.3c-1.2,0-2.1-1-2.1-2.1v-85.9c0-1.2,1-2.1,2.1-2.1c1.2,0,2.1,1,2.1,2.1v85.9
			C1146.3,559.3,1145.3,560.3,1144.1,560.3z"/>
	</g>
	<g>
		<path fill="#FF968C" d="M1244.6,290.5c-17.2,80.2-96.2,131.3-176.4,114c-19-4.1-36.3-11.6-51.5-21.8
			c-18.8,10.2-57.7,27.5-101.1,24.7c0,0,40.6-38.7,51-81.5c-14.7-29.2-19.9-63.4-12.5-97.8c17.2-80.2,96.2-131.3,176.4-114
			C1210.8,131.3,1261.8,210.3,1244.6,290.5z"/>
		<path d="M1099.5,410c-10.6,0-21.3-1.1-31.8-3.4c-18.3-3.9-35.5-11.1-51.1-21.4c-17.8,9.5-52.4,24.6-91.5,24.6
			c-3.2,0-6.4-0.1-9.6-0.3c-0.9-0.1-1.6-0.6-1.9-1.4c-0.3-0.8-0.1-1.7,0.5-2.3c0.4-0.4,39.8-38.3,50.2-79.7
			c-15.3-30.8-19.5-64.8-12.3-98.5c14.8-69,76.7-119.1,147.2-119.1c10.6,0,21.3,1.1,31.8,3.4c81.2,17.4,133.1,97.7,115.7,179
			C1231.9,359.9,1170,410,1099.5,410z M1016.7,380.5c0.4,0,0.8,0.1,1.2,0.4c15.4,10.4,32.5,17.6,50.7,21.5
			c10.2,2.2,20.6,3.3,30.9,3.3c68.5,0,128.6-48.7,143-115.7c16.9-78.9-33.5-156.9-112.4-173.8c-10.2-2.2-20.6-3.3-30.9-3.3
			c-68.5,0-128.6,48.6-143,115.7c-7.1,33-2.8,66.3,12.3,96.4c0.2,0.5,0.3,1,0.2,1.5c-8.7,36-37.9,68.5-48.1,79c1.5,0,3,0.1,4.5,0.1
			c39.1,0,73.5-15.5,90.6-24.7C1016,380.6,1016.4,380.5,1016.7,380.5z"/>
	</g>
	<g>
		<g>
			<polygon fill="#FFFFFF" points="1199.1,205.5 1051.9,314.5 1051.9,314.5 1084.5,358.9 			"/>
			<path d="M1084.5,361.1c-0.7,0-1.3-0.3-1.7-0.9l-32.7-44.4c-0.7-1-0.5-2.3,0.5-3l147.2-109c0.8-0.6,2-0.5,2.8,0.2
				c0.8,0.8,0.8,1.9,0.2,2.8l-114.5,153.4C1085.9,360.7,1085.2,361.1,1084.5,361.1z M1054.9,314.9l29.7,40.4l104-139.4L1054.9,314.9
				z"/>
		</g>
		<g>
			<polygon fill="#FFFFFF" points="993,234.4 1022.6,274.6 1199.1,205.5 			"/>
			<path d="M1022.6,276.8c-0.7,0-1.3-0.3-1.7-0.9l-29.6-40.2c-0.4-0.6-0.5-1.4-0.2-2.1c0.3-0.7,0.9-1.2,1.7-1.3l206-28.9
				c1.1-0.2,2.1,0.5,2.4,1.6c0.3,1.1-0.3,2.1-1.3,2.5l-176.5,69.1C1023.1,276.7,1022.9,276.8,1022.6,276.8z M996.9,236l26.5,36
				l157.9-61.9L996.9,236z"/>
		</g>
		<g>
			<polygon fill="#FFFFFF" points="1022.6,274.6 1022.3,274.7 1020.5,320.2 1051.9,314.5 1199.1,205.5 			"/>
			<path d="M1020.5,322.3c-0.5,0-1-0.2-1.4-0.5c-0.5-0.4-0.8-1.1-0.7-1.7l1.8-45.4c0-0.8,0.5-1.6,1.3-1.9l176.8-69.3
				c1-0.4,2.1,0,2.7,1c0.5,0.9,0.3,2.1-0.6,2.8l-147.2,109c-0.3,0.2-0.6,0.3-0.9,0.4l-31.4,5.7
				C1020.8,322.3,1020.6,322.3,1020.5,322.3z M1024.4,276.2l-1.7,41.4l28.3-5.1l133.8-99L1024.4,276.2z"/>
		</g>
		<g>
			<polygon fill="#FFFFFF" points="1051.8,314.4 1051.9,314.5 1051.9,314.5 			"/>
			<path d="M1051.8,316.6c-0.6,0-1.2-0.3-1.6-0.8l-0.1-0.1c-0.3-0.4-0.5-0.9-0.5-1.3c0-0.6,0.3-1.3,0.8-1.7c0.9-0.7,2.3-0.6,3,0.4
				c0.3,0.4,0.5,0.9,0.5,1.4c0,0.6-0.3,1.3-0.8,1.7C1052.8,316.4,1052.3,316.6,1051.8,316.6z"/>
		</g>
	</g>
	<g>
		<path d="M765.9,694.4H650.4c-1.2,0-2.1-1-2.1-2.1s1-2.1,2.1-2.1h115.4c1.2,0,2.1,1,2.1,2.1S767.1,694.4,765.9,694.4z"/>
	</g>
	<g>
		<path d="M835.7,694.4H797c-1.2,0-2.1-1-2.1-2.1s1-2.1,2.1-2.1h38.7c1.2,0,2.1,1,2.1,2.1S836.9,694.4,835.7,694.4z"/>
	</g>
	<g>
		<path d="M804.8,112.9h-38.7c-1.2,0-2.1-1-2.1-2.1s1-2.1,2.1-2.1h38.7c1.2,0,2.1,1,2.1,2.1S806,112.9,804.8,112.9z"/>
	</g>
	<g>
		<path d="M148,105.7h-38.7c-1.2,0-2.1-1-2.1-2.1s1-2.1,2.1-2.1H148c1.2,0,2.1,1,2.1,2.1S149.2,105.7,148,105.7z"/>
	</g>
	<g>
		<path d="M119.5,541H80.9c-1.2,0-2.1-1-2.1-2.1s1-2.1,2.1-2.1h38.7c1.2,0,2.1,1,2.1,2.1S120.7,541,119.5,541z"/>
	</g>
	<g>
		<path d="M232.3,153.4h-84.1c-1.2,0-2.1-1-2.1-2.1s1-2.1,2.1-2.1h84.1c1.2,0,2.1,1,2.1,2.1S233.5,153.4,232.3,153.4z"/>
	</g>
	<g>
		<path d="M1310.7,255.1h-38.7c-1.2,0-2.1-1-2.1-2.1c0-1.2,1-2.1,2.1-2.1h38.7c1.2,0,2.1,1,2.1,2.1
			C1312.9,254.1,1311.9,255.1,1310.7,255.1z"/>
	</g>
	<g>
		<path d="M560.4,694.4h-87.8c-1.2,0-2.1-1-2.1-2.1s1-2.1,2.1-2.1h87.8c1.2,0,2.1,1,2.1,2.1S561.6,694.4,560.4,694.4z"/>
	</g>
	<g>
		<path d="M374,694.4h-71.1c-1.2,0-2.1-1-2.1-2.1s1-2.1,2.1-2.1H374c1.2,0,2.1,1,2.1,2.1S375.2,694.4,374,694.4z"/>
	</g>
	<g>
		<path d="M270.7,694.4h-77.3c-1.2,0-2.1-1-2.1-2.1s1-2.1,2.1-2.1h77.3c1.2,0,2.1,1,2.1,2.1S271.9,694.4,270.7,694.4z"/>
	</g>
	<g>
		<path d="M447.6,909.2h-227c-1.2,0-2.1-1-2.1-2.1c0-1.2,1-2.1,2.1-2.1h227c1.2,0,2.1,1,2.1,2.1
			C449.7,908.2,448.7,909.2,447.6,909.2z"/>
	</g>
	<g>
		<path d="M549.2,909.2h-60.2c-1.2,0-2.1-1-2.1-2.1c0-1.2,1-2.1,2.1-2.1h60.2c1.2,0,2.1,1,2.1,2.1
			C551.4,908.2,550.4,909.2,549.2,909.2z"/>
	</g>
	<g>
		<path d="M638,909.2h-41.7c-1.2,0-2.1-1-2.1-2.1c0-1.2,1-2.1,2.1-2.1H638c1.2,0,2.1,1,2.1,2.1C640.2,908.2,639.2,909.2,638,909.2z"
			/>
	</g>
	<g>
		<path d="M1062,909.2H780c-1.2,0-2.1-1-2.1-2.1c0-1.2,1-2.1,2.1-2.1H1062c1.2,0,2.1,1,2.1,2.1
			C1064.1,908.2,1063.2,909.2,1062,909.2z"/>
	</g>
	<g>
		<path d="M1219.5,909.2h-106.5c-1.2,0-2.1-1-2.1-2.1c0-1.2,1-2.1,2.1-2.1h106.5c1.2,0,2.1,1,2.1,2.1
			C1221.7,908.2,1220.7,909.2,1219.5,909.2z"/>
	</g>
	<g>
		<path d="M1276,682.9h-122c-1.2,0-2.1-1-2.1-2.1c0-1.2,1-2.1,2.1-2.1h122c1.2,0,2.1,1,2.1,2.1
			C1278.1,681.9,1277.2,682.9,1276,682.9z"/>
	</g>
	<g>
		<path d="M1096,682.9h-54.1c-1.2,0-2.1-1-2.1-2.1c0-1.2,1-2.1,2.1-2.1h54.1c1.2,0,2.1,1,2.1,2.1
			C1098.2,681.9,1097.2,682.9,1096,682.9z"/>
	</g>
	<g>
		<path d="M871.7,153.4c-13,0-23.6-10.6-23.6-23.6c0-13,10.6-23.6,23.6-23.6s23.6,10.6,23.6,23.6
			C895.4,142.8,884.8,153.4,871.7,153.4z M871.7,110.5c-10.7,0-19.3,8.7-19.3,19.3c0,10.7,8.7,19.3,19.3,19.3
			c10.7,0,19.3-8.7,19.3-19.3C891.1,119.1,882.4,110.5,871.7,110.5z"/>
	</g>
	<g>
		<path d="M723.1,649c-8.2,0-14.8-6.6-14.8-14.8c0-8.2,6.6-14.8,14.8-14.8c8.2,0,14.8,6.6,14.8,14.8
			C737.9,642.4,731.3,649,723.1,649z M723.1,623.7c-5.8,0-10.5,4.7-10.5,10.5c0,5.8,4.7,10.5,10.5,10.5c5.8,0,10.5-4.7,10.5-10.5
			C733.6,628.4,728.9,623.7,723.1,623.7z"/>
	</g>
	<g>
		<path d="M128.7,465.6c-8.2,0-14.8-6.6-14.8-14.8s6.6-14.8,14.8-14.8c8.2,0,14.8,6.6,14.8,14.8S136.9,465.6,128.7,465.6z
			 M128.7,440.3c-5.8,0-10.5,4.7-10.5,10.5s4.7,10.5,10.5,10.5c5.8,0,10.5-4.7,10.5-10.5S134.5,440.3,128.7,440.3z"/>
	</g>
	<g>
		<path d="M1291.4,328.1c-8.2,0-14.8-6.6-14.8-14.8c0-8.2,6.6-14.8,14.8-14.8c8.2,0,14.8,6.6,14.8,14.8
			C1306.2,321.5,1299.6,328.1,1291.4,328.1z M1291.4,302.8c-5.8,0-10.5,4.7-10.5,10.5s4.7,10.5,10.5,10.5c5.8,0,10.5-4.7,10.5-10.5
			S1297.2,302.8,1291.4,302.8z"/>
	</g>
	<g>
		<g>
			<path d="M984.8,118c-0.5,0-1.1-0.2-1.5-0.6l-38.2-38.1c-0.8-0.8-0.8-2.2,0-3c0.8-0.8,2.2-0.8,3,0l38.2,38.1c0.8,0.8,0.8,2.2,0,3
				C985.9,117.8,985.3,118,984.8,118z"/>
		</g>
		<g>
			<path d="M946.6,118c-0.5,0-1.1-0.2-1.5-0.6c-0.8-0.8-0.8-2.2,0-3l38.1-38.1c0.8-0.8,2.2-0.8,3,0c0.8,0.8,0.8,2.2,0,3l-38.1,38.1
				C947.7,117.8,947.2,118,946.6,118z"/>
		</g>
	</g>
	<g>
		<g>
			<path d="M619.2,658.4c-0.5,0-1.1-0.2-1.5-0.6L586,626.1c-0.8-0.8-0.8-2.2,0-3c0.8-0.8,2.2-0.8,3,0l31.7,31.7c0.8,0.8,0.8,2.2,0,3
				C620.3,658.2,619.7,658.4,619.2,658.4z"/>
		</g>
		<g>
			<path d="M587.5,658.4c-0.5,0-1.1-0.2-1.5-0.6c-0.8-0.8-0.8-2.2,0-3l31.7-31.7c0.8-0.8,2.2-0.8,3,0c0.8,0.8,0.8,2.2,0,3L589,657.8
				C588.6,658.2,588,658.4,587.5,658.4z"/>
		</g>
	</g>
	<g>
		<g>
			<path d="M1307.2,642.6c-0.5,0-1.1-0.2-1.5-0.6l-31.7-31.7c-0.8-0.8-0.8-2.2,0-3c0.8-0.8,2.2-0.8,3,0l31.7,31.7
				c0.8,0.8,0.8,2.2,0,3C1308.3,642.3,1307.8,642.6,1307.2,642.6z"/>
		</g>
		<g>
			<path d="M1275.5,642.6c-0.5,0-1.1-0.2-1.5-0.6c-0.8-0.8-0.8-2.2,0-3l31.7-31.7c0.8-0.8,2.2-0.8,3,0c0.8,0.8,0.8,2.2,0,3
				l-31.7,31.7C1276.6,642.3,1276.1,642.6,1275.5,642.6z"/>
		</g>
	</g>
	<g>
		<g>
			<path d="M116,376.9c-0.5,0-1.1-0.2-1.5-0.6l-31.7-31.7c-0.8-0.8-0.8-2.2,0-3c0.8-0.8,2.2-0.8,3,0l31.7,31.7c0.8,0.8,0.8,2.2,0,3
				C117.1,376.7,116.6,376.9,116,376.9z"/>
		</g>
		<g>
			<path d="M84.3,376.9c-0.5,0-1.1-0.2-1.5-0.6c-0.8-0.8-0.8-2.2,0-3l31.7-31.7c0.8-0.8,2.2-0.8,3,0c0.8,0.8,0.8,2.2,0,3l-31.7,31.7
				C85.4,376.7,84.9,376.9,84.3,376.9z"/>
		</g>
	</g>
</g>
</svg>
